<svg width="2380" height="315" viewBox="0 0 2380 315" fill="none" xmlns="http://www.w3.org/2000/svg">
<rect width="2380" height="315" fill="#FFC017"/>
<rect x="3" width="300" height="300" rx="70" fill="#20242E"/>
<path d="M56.04 78L32.88 47.28L45.12 39.72L73.68 78H56.04ZM10.08 78V13.92H25.08V78H10.08ZM20.64 52.32V39.84H42.36V52.32H20.64ZM46.56 47.76L32.52 46.08L56.04 13.92H72.12L46.56 47.76ZM110.71 78.84C104.15 78.84 98.3103 77.44 93.1903 74.64C88.0703 71.76 84.0303 67.84 81.0703 62.88C78.1103 57.92 76.6303 52.28 76.6303 45.96C76.6303 39.56 78.1103 33.92 81.0703 29.04C84.0303 24.08 88.0703 20.2 93.1903 17.4C98.3103 14.6 104.15 13.2 110.71 13.2C117.35 13.2 123.23 14.6 128.35 17.4C133.55 20.2 137.59 24.04 140.47 28.92C143.43 33.8 144.91 39.48 144.91 45.96C144.91 52.28 143.43 57.92 140.47 62.88C137.59 67.84 133.55 71.76 128.35 74.64C123.23 77.44 117.35 78.84 110.71 78.84ZM110.71 66C114.39 66 117.67 65.2 120.55 63.6C123.43 62 125.67 59.68 127.27 56.64C128.95 53.6 129.79 50.04 129.79 45.96C129.79 41.8 128.95 38.24 127.27 35.28C125.67 32.24 123.43 29.92 120.55 28.32C117.67 26.72 114.43 25.92 110.83 25.92C107.15 25.92 103.87 26.72 100.99 28.32C98.1903 29.92 95.9503 32.24 94.2703 35.28C92.5903 38.24 91.7503 41.8 91.7503 45.96C91.7503 50.04 92.5903 53.6 94.2703 56.64C95.9503 59.68 98.1903 62 100.99 63.6C103.87 65.2 107.11 66 110.71 66ZM159.728 78V13.92H174.728V39.96H207.008V13.92H222.008V78H207.008V52.68H174.728V78H159.728ZM271.271 78.84C264.551 78.84 258.551 77.44 253.271 74.64C248.071 71.76 243.991 67.84 241.031 62.88C238.071 57.92 236.591 52.28 236.591 45.96C236.591 39.56 238.071 33.92 241.031 29.04C243.991 24.08 248.071 20.2 253.271 17.4C258.551 14.6 264.551 13.2 271.271 13.2C277.511 13.2 282.991 14.48 287.711 17.04C292.511 19.52 296.151 23.2 298.631 28.08L287.111 34.8C285.191 31.76 282.831 29.52 280.031 28.08C277.311 26.64 274.351 25.92 271.151 25.92C267.471 25.92 264.151 26.72 261.191 28.32C258.231 29.92 255.911 32.24 254.231 35.28C252.551 38.24 251.711 41.8 251.711 45.96C251.711 50.12 252.551 53.72 254.231 56.76C255.911 59.72 258.231 62 261.191 63.6C264.151 65.2 267.471 66 271.151 66C274.351 66 277.311 65.28 280.031 63.84C282.831 62.4 285.191 60.16 287.111 57.12L298.631 63.84C296.151 68.64 292.511 72.36 287.711 75C282.991 77.56 277.511 78.84 271.271 78.84ZM23.4 188V133.04L26.88 136.64H0.84V123.92H60.84V136.64H34.92L38.4 133.04V188H23.4ZM107.241 188.84C102.041 188.84 97.2806 187.64 92.9606 185.24C88.7206 182.84 85.3206 179.24 82.7606 174.44C80.2806 169.56 79.0406 163.4 79.0406 155.96C79.0406 148.44 80.2406 142.28 82.6406 137.48C85.1206 132.68 88.4806 129.12 92.7206 126.8C96.9606 124.4 101.801 123.2 107.241 123.2C113.561 123.2 119.121 124.56 123.921 127.28C128.801 130 132.641 133.8 135.441 138.68C138.321 143.56 139.761 149.32 139.761 155.96C139.761 162.6 138.321 168.4 135.441 173.36C132.641 178.24 128.801 182.04 123.921 184.76C119.121 187.48 113.561 188.84 107.241 188.84ZM71.7206 211.28V123.92H86.0006V139.04L85.5206 156.08L86.7206 173.12V211.28H71.7206ZM105.561 176C109.161 176 112.361 175.2 115.161 173.6C118.041 172 120.321 169.68 122.001 166.64C123.681 163.6 124.521 160.04 124.521 155.96C124.521 151.8 123.681 148.24 122.001 145.28C120.321 142.24 118.041 139.92 115.161 138.32C112.361 136.72 109.161 135.92 105.561 135.92C101.961 135.92 98.7206 136.72 95.8406 138.32C92.9606 139.92 90.6806 142.24 89.0006 145.28C87.3206 148.24 86.4806 151.8 86.4806 155.96C86.4806 160.04 87.3206 163.6 89.0006 166.64C90.6806 169.68 92.9606 172 95.8406 173.6C98.7206 175.2 101.961 176 105.561 176ZM158.692 212.12C155.572 212.12 152.452 211.6 149.332 210.56C146.212 209.52 143.612 208.08 141.532 206.24L147.532 195.2C149.052 196.56 150.772 197.64 152.692 198.44C154.612 199.24 156.572 199.64 158.572 199.64C161.292 199.64 163.492 198.96 165.172 197.6C166.852 196.24 168.412 193.96 169.852 190.76L173.572 182.36L174.772 180.56L199.012 123.92H213.412L183.412 193.16C181.412 197.96 179.172 201.76 176.692 204.56C174.292 207.36 171.572 209.32 168.532 210.44C165.572 211.56 162.292 212.12 158.692 212.12ZM171.892 190.28L142.972 123.92H158.572L182.092 179.24L171.892 190.28ZM269.79 188L246.63 157.28L258.87 149.72L287.43 188H269.79ZM223.83 188V123.92H238.83V188H223.83ZM234.39 162.32V149.84H256.11V162.32H234.39ZM260.31 157.76L246.27 156.08L269.79 123.92H285.87L260.31 157.76ZM23.4 298V243.04L26.88 246.64H0.84V233.92H60.84V246.64H34.92L38.4 243.04V298H23.4ZM97.4681 298.84C90.9081 298.84 85.0681 297.44 79.9481 294.64C74.8281 291.76 70.7881 287.84 67.8281 282.88C64.8681 277.92 63.3881 272.28 63.3881 265.96C63.3881 259.56 64.8681 253.92 67.8281 249.04C70.7881 244.08 74.8281 240.2 79.9481 237.4C85.0681 234.6 90.9081 233.2 97.4681 233.2C104.108 233.2 109.988 234.6 115.108 237.4C120.308 240.2 124.348 244.04 127.228 248.92C130.188 253.8 131.668 259.48 131.668 265.96C131.668 272.28 130.188 277.92 127.228 282.88C124.348 287.84 120.308 291.76 115.108 294.64C109.988 297.44 104.108 298.84 97.4681 298.84ZM97.4681 286C101.148 286 104.428 285.2 107.308 283.6C110.188 282 112.428 279.68 114.028 276.64C115.708 273.6 116.548 270.04 116.548 265.96C116.548 261.8 115.708 258.24 114.028 255.28C112.428 252.24 110.188 249.92 107.308 248.32C104.428 246.72 101.188 245.92 97.5881 245.92C93.9081 245.92 90.6281 246.72 87.7481 248.32C84.9481 249.92 82.7081 252.24 81.0281 255.28C79.3481 258.24 78.5081 261.8 78.5081 265.96C78.5081 270.04 79.3481 273.6 81.0281 276.64C82.7081 279.68 84.9481 282 87.7481 283.6C90.6281 285.2 93.8681 286 97.4681 286ZM182.006 298.84C176.806 298.84 172.046 297.64 167.726 295.24C163.486 292.84 160.086 289.24 157.526 284.44C155.046 279.56 153.806 273.4 153.806 265.96C153.806 258.44 155.006 252.28 157.406 247.48C159.886 242.68 163.246 239.12 167.486 236.8C171.726 234.4 176.566 233.2 182.006 233.2C188.326 233.2 193.886 234.56 198.686 237.28C203.566 240 207.406 243.8 210.206 248.68C213.086 253.56 214.526 259.32 214.526 265.96C214.526 272.6 213.086 278.4 210.206 283.36C207.406 288.24 203.566 292.04 198.686 294.76C193.886 297.48 188.326 298.84 182.006 298.84ZM146.486 321.28V233.92H160.766V249.04L160.286 266.08L161.486 283.12V321.28H146.486ZM180.326 286C183.926 286 187.126 285.2 189.926 283.6C192.806 282 195.086 279.68 196.766 276.64C198.446 273.6 199.286 270.04 199.286 265.96C199.286 261.8 198.446 258.24 196.766 255.28C195.086 252.24 192.806 249.92 189.926 248.32C187.126 246.72 183.926 245.92 180.326 245.92C176.726 245.92 173.486 246.72 170.606 248.32C167.726 249.92 165.446 252.24 163.766 255.28C162.086 258.24 161.246 261.8 161.246 265.96C161.246 270.04 162.086 273.6 163.766 276.64C165.446 279.68 167.726 282 170.606 283.6C173.486 285.2 176.726 286 180.326 286ZM232.96 298.84C230.24 298.84 227.92 297.92 226 296.08C224.08 294.16 223.12 291.76 223.12 288.88C223.12 285.84 224.08 283.44 226 281.68C227.92 279.84 230.24 278.92 232.96 278.92C235.68 278.92 238 279.84 239.92 281.68C241.84 283.44 242.8 285.84 242.8 288.88C242.8 291.76 241.84 294.16 239.92 296.08C238 297.92 235.68 298.84 232.96 298.84Z" fill="#FFC017"/>
<path d="M500.1 250L442.2 173.2L472.8 154.3L544.2 250H500.1ZM385.2 250V89.8H422.7V250H385.2ZM411.6 185.8V154.6H465.9V185.8H411.6ZM476.4 174.4L441.3 170.2L500.1 89.8H540.3L476.4 174.4ZM636.776 252.1C620.376 252.1 605.776 248.6 592.976 241.6C580.176 234.4 570.076 224.6 562.676 212.2C555.276 199.8 551.576 185.7 551.576 169.9C551.576 153.9 555.276 139.8 562.676 127.6C570.076 115.2 580.176 105.5 592.976 98.5C605.776 91.5 620.376 88 636.776 88C653.376 88 668.076 91.5 680.876 98.5C693.876 105.5 703.976 115.1 711.176 127.3C718.576 139.5 722.276 153.7 722.276 169.9C722.276 185.7 718.576 199.8 711.176 212.2C703.976 224.6 693.876 234.4 680.876 241.6C668.076 248.6 653.376 252.1 636.776 252.1ZM636.776 220C645.976 220 654.176 218 661.376 214C668.576 210 674.176 204.2 678.176 196.6C682.376 189 684.476 180.1 684.476 169.9C684.476 159.5 682.376 150.6 678.176 143.2C674.176 135.6 668.576 129.8 661.376 125.8C654.176 121.8 646.076 119.8 637.076 119.8C627.876 119.8 619.676 121.8 612.476 125.8C605.476 129.8 599.876 135.6 595.676 143.2C591.476 150.6 589.376 159.5 589.376 169.9C589.376 180.1 591.476 189 595.676 196.6C599.876 204.2 605.476 210 612.476 214C619.676 218 627.776 220 636.776 220ZM759.321 250V89.8H796.821V154.9H877.521V89.8H915.021V250H877.521V186.7H796.821V250H759.321ZM1038.18 252.1C1021.38 252.1 1006.38 248.6 993.178 241.6C980.178 234.4 969.978 224.6 962.578 212.2C955.178 199.8 951.478 185.7 951.478 169.9C951.478 153.9 955.178 139.8 962.578 127.6C969.978 115.2 980.178 105.5 993.178 98.5C1006.38 91.5 1021.38 88 1038.18 88C1053.78 88 1067.48 91.2 1079.28 97.6C1091.28 103.8 1100.38 113 1106.58 125.2L1077.78 142C1072.98 134.4 1067.08 128.8 1060.08 125.2C1053.28 121.6 1045.88 119.8 1037.88 119.8C1028.68 119.8 1020.38 121.8 1012.98 125.8C1005.58 129.8 999.778 135.6 995.578 143.2C991.378 150.6 989.278 159.5 989.278 169.9C989.278 180.3 991.378 189.3 995.578 196.9C999.778 204.3 1005.58 210 1012.98 214C1020.38 218 1028.68 220 1037.88 220C1045.88 220 1053.28 218.2 1060.08 214.6C1067.08 211 1072.98 205.4 1077.78 197.8L1106.58 214.6C1100.38 226.6 1091.28 235.9 1079.28 242.5C1067.48 248.9 1053.78 252.1 1038.18 252.1ZM1171.72 250V112.6L1180.42 121.6H1115.32V89.8H1265.32V121.6H1200.52L1209.22 112.6V250H1171.72ZM1381.32 252.1C1368.32 252.1 1356.42 249.1 1345.62 243.1C1335.02 237.1 1326.52 228.1 1320.12 216.1C1313.92 203.9 1310.82 188.5 1310.82 169.9C1310.82 151.1 1313.82 135.7 1319.82 123.7C1326.02 111.7 1334.42 102.8 1345.02 97C1355.62 91 1367.72 88 1381.32 88C1397.12 88 1411.02 91.4 1423.02 98.2C1435.22 105 1444.82 114.5 1451.82 126.7C1459.02 138.9 1462.62 153.3 1462.62 169.9C1462.62 186.5 1459.02 201 1451.82 213.4C1444.82 225.6 1435.22 235.1 1423.02 241.9C1411.02 248.7 1397.12 252.1 1381.32 252.1ZM1292.52 308.2V89.8H1328.22V127.6L1327.02 170.2L1330.02 212.8V308.2H1292.52ZM1377.12 220C1386.12 220 1394.12 218 1401.12 214C1408.32 210 1414.02 204.2 1418.22 196.6C1422.42 189 1424.52 180.1 1424.52 169.9C1424.52 159.5 1422.42 150.6 1418.22 143.2C1414.02 135.6 1408.32 129.8 1401.12 125.8C1394.12 121.8 1386.12 119.8 1377.12 119.8C1368.12 119.8 1360.02 121.8 1352.82 125.8C1345.62 129.8 1339.92 135.6 1335.72 143.2C1331.52 150.6 1329.42 159.5 1329.42 169.9C1329.42 180.1 1331.52 189 1335.72 196.6C1339.92 204.2 1345.62 210 1352.82 214C1360.02 218 1368.12 220 1377.12 220ZM1509.95 310.3C1502.15 310.3 1494.35 309 1486.55 306.4C1478.75 303.8 1472.25 300.2 1467.05 295.6L1482.05 268C1485.85 271.4 1490.15 274.1 1494.95 276.1C1499.75 278.1 1504.65 279.1 1509.65 279.1C1516.45 279.1 1521.95 277.4 1526.15 274C1530.35 270.6 1534.25 264.9 1537.85 256.9L1547.15 235.9L1550.15 231.4L1610.75 89.8H1646.75L1571.75 262.9C1566.75 274.9 1561.15 284.4 1554.95 291.4C1548.95 298.4 1542.15 303.3 1534.55 306.1C1527.15 308.9 1518.95 310.3 1509.95 310.3ZM1542.95 255.7L1470.65 89.8H1509.65L1568.45 228.1L1542.95 255.7ZM1787.7 250L1729.8 173.2L1760.4 154.3L1831.8 250H1787.7ZM1672.8 250V89.8H1710.3V250H1672.8ZM1699.2 185.8V154.6H1753.5V185.8H1699.2ZM1764 174.4L1728.9 170.2L1787.7 89.8H1827.9L1764 174.4ZM1889.5 250V112.6L1898.2 121.6H1833.1V89.8H1983.1V121.6H1918.3L1927 112.6V250H1889.5ZM2074.67 252.1C2058.27 252.1 2043.67 248.6 2030.87 241.6C2018.07 234.4 2007.97 224.6 2000.57 212.2C1993.17 199.8 1989.47 185.7 1989.47 169.9C1989.47 153.9 1993.17 139.8 2000.57 127.6C2007.97 115.2 2018.07 105.5 2030.87 98.5C2043.67 91.5 2058.27 88 2074.67 88C2091.27 88 2105.97 91.5 2118.77 98.5C2131.77 105.5 2141.87 115.1 2149.07 127.3C2156.47 139.5 2160.17 153.7 2160.17 169.9C2160.17 185.7 2156.47 199.8 2149.07 212.2C2141.87 224.6 2131.77 234.4 2118.77 241.6C2105.97 248.6 2091.27 252.1 2074.67 252.1ZM2074.67 220C2083.87 220 2092.07 218 2099.27 214C2106.47 210 2112.07 204.2 2116.07 196.6C2120.27 189 2122.37 180.1 2122.37 169.9C2122.37 159.5 2120.27 150.6 2116.07 143.2C2112.07 135.6 2106.47 129.8 2099.27 125.8C2092.07 121.8 2083.97 119.8 2074.97 119.8C2065.77 119.8 2057.57 121.8 2050.37 125.8C2043.37 129.8 2037.77 135.6 2033.57 143.2C2029.37 150.6 2027.27 159.5 2027.27 169.9C2027.27 180.1 2029.37 189 2033.57 196.6C2037.77 204.2 2043.37 210 2050.37 214C2057.57 218 2065.67 220 2074.67 220ZM2286.01 252.1C2273.01 252.1 2261.11 249.1 2250.31 243.1C2239.71 237.1 2231.21 228.1 2224.81 216.1C2218.61 203.9 2215.51 188.5 2215.51 169.9C2215.51 151.1 2218.51 135.7 2224.51 123.7C2230.71 111.7 2239.11 102.8 2249.71 97C2260.31 91 2272.41 88 2286.01 88C2301.81 88 2315.71 91.4 2327.71 98.2C2339.91 105 2349.51 114.5 2356.51 126.7C2363.71 138.9 2367.31 153.3 2367.31 169.9C2367.31 186.5 2363.71 201 2356.51 213.4C2349.51 225.6 2339.91 235.1 2327.71 241.9C2315.71 248.7 2301.81 252.1 2286.01 252.1ZM2197.21 308.2V89.8H2232.91V127.6L2231.71 170.2L2234.71 212.8V308.2H2197.21ZM2281.81 220C2290.81 220 2298.81 218 2305.81 214C2313.01 210 2318.71 204.2 2322.91 196.6C2327.11 189 2329.21 180.1 2329.21 169.9C2329.21 159.5 2327.11 150.6 2322.91 143.2C2318.71 135.6 2313.01 129.8 2305.81 125.8C2298.81 121.8 2290.81 119.8 2281.81 119.8C2272.81 119.8 2264.71 121.8 2257.51 125.8C2250.31 129.8 2244.61 135.6 2240.41 143.2C2236.21 150.6 2234.11 159.5 2234.11 169.9C2234.11 180.1 2236.21 189 2240.41 196.6C2244.61 204.2 2250.31 210 2257.51 214C2264.71 218 2272.81 220 2281.81 220Z" fill="#20242E"/>
</svg>
