<svg width="1151" height="76" viewBox="0 0 1151 76" fill="none" xmlns="http://www.w3.org/2000/svg">
<path fill-rule="evenodd" clip-rule="evenodd" d="M2.87874 24.8137C1.13391 28.3816 0.154541 32.3923 0.154541 36.6316V57.3423H22.4109V62.2369H13.7761V82H8.00421V62.2369H0.154541V98.1988C0.154541 98.5819 0.162539 98.9631 0.178376 99.3423H22.4109V104.237H13.7761V121.619C17.7031 123.856 22.2474 125.134 27.0902 125.134H55.3672V99.3423H60.8621V102.59C61.6005 101.703 62.4624 100.99 63.4479 100.451C65.0794 99.527 66.9418 99.0653 69.0351 99.0653C71.467 99.0653 73.6065 99.5886 75.4535 100.635C77.3313 101.682 78.8089 103.144 79.8863 105.022C80.9946 106.9 81.5487 109.116 81.5487 111.671C81.5487 114.226 80.9946 116.458 79.8863 118.367C78.8089 120.244 77.3313 121.707 75.4535 122.753C73.6065 123.8 71.467 124.323 69.0351 124.323C67.0342 124.323 65.2026 123.861 63.5402 122.938C62.6419 122.429 61.8415 121.781 61.1391 120.992V125.134H88.6574C103.534 125.134 115.593 113.075 115.593 98.1988V36.6316C115.593 31.3387 114.066 26.4025 111.43 22.239L109.479 23.3768C108.74 22.2071 107.832 21.3451 106.755 20.791C105.708 20.2369 104.569 19.9599 103.338 19.9599C101.922 19.9599 100.644 20.2677 99.5051 20.8834C98.3661 21.499 97.4734 22.3918 96.827 23.5616C96.1805 24.7005 95.8573 26.0704 95.8573 27.6712C95.8573 29.2719 96.1805 30.6572 96.827 31.827C97.4734 32.9659 98.3661 33.8433 99.5051 34.459C100.644 35.0746 101.922 35.3825 103.338 35.3825C104.569 35.3825 105.708 35.1054 106.755 34.5513C107.832 33.9972 108.74 33.1353 109.479 31.9655L113.912 34.5513C112.958 36.3983 111.557 37.8298 109.71 38.8456C107.894 39.8307 105.785 40.3232 103.384 40.3232C100.798 40.3232 98.4893 39.7845 96.4576 38.7071C94.4566 37.5989 92.8867 36.0905 91.7477 34.1819C90.6087 32.2733 90.0392 30.1031 90.0392 27.6712C90.0392 25.2085 90.6087 23.0382 91.7477 21.1604C92.8867 19.2518 94.4566 17.7588 96.4576 16.6814C98.4893 15.604 100.798 15.0653 103.384 15.0653C103.899 15.0653 104.4 15.0879 104.888 15.1332C100.374 11.7202 94.7523 9.69592 88.6574 9.69592H27.0902C19.9561 9.69592 13.4698 12.4694 8.65066 16.997V25.3162H13.2696L20.5639 15.3423H26.7514L17.7985 27.1955L27.3517 40H20.5639L13.1142 30.1185H8.65066V40H2.87874V24.8137ZM8.00421 117.205V104.237H0.833944C1.97794 109.232 4.51069 113.698 8.00421 117.205ZM34.8592 38.7071C36.8293 39.7845 39.0765 40.3232 41.6008 40.3232C44.1558 40.3232 46.4184 39.7845 48.3886 38.7071C50.3895 37.5989 51.9441 36.0905 53.0523 34.1819C54.1913 32.2733 54.7608 30.1031 54.7608 27.6712C54.7608 25.1777 54.1913 22.9921 53.0523 21.1143C51.9441 19.2365 50.3895 17.7588 48.3886 16.6814C46.4184 15.604 44.1558 15.0653 41.6008 15.0653C39.0765 15.0653 36.8293 15.604 34.8592 16.6814C32.889 17.7588 31.3345 19.2518 30.1955 21.1604C29.0565 23.0382 28.487 25.2085 28.487 27.6712C28.487 30.1031 29.0565 32.2733 30.1955 34.1819C31.3345 36.0905 32.889 37.5989 34.8592 38.7071ZM45.3872 34.459C44.279 35.0746 43.0168 35.3825 41.6008 35.3825C40.2155 35.3825 38.9688 35.0746 37.8606 34.459C36.7832 33.8433 35.9212 32.9506 35.2748 31.7808C34.6283 30.611 34.3051 29.2411 34.3051 27.6712C34.3051 26.0704 34.6283 24.7005 35.2748 23.5616C35.9212 22.3918 36.7832 21.499 37.8606 20.8834C38.9688 20.2677 40.2309 19.9599 41.647 19.9599C43.0322 19.9599 44.279 20.2677 45.3872 20.8834C46.4954 21.499 47.3573 22.3918 47.973 23.5616C48.6195 24.7005 48.9427 26.0704 48.9427 27.6712C48.9427 29.2411 48.6195 30.611 47.973 31.7808C47.3573 32.9506 46.4954 33.8433 45.3872 34.459ZM66.2347 15.3423H60.4627V40H66.2347V30.257H78.6558V40H84.4278V15.3423H78.6558V25.3624H66.2347V15.3423ZM34.7708 80.938C36.4331 81.8615 38.2647 82.3232 40.2657 82.3232C42.6976 82.3232 44.837 81.7999 46.6841 80.7533C48.5619 79.7066 50.0395 78.2444 51.1169 76.3666C52.2251 74.458 52.7792 72.2262 52.7792 69.6712C52.7792 67.1161 52.2251 64.8997 51.1169 63.0219C50.0395 61.1441 48.5619 59.6819 46.6841 58.6352C44.837 57.5886 42.6976 57.0653 40.2657 57.0653C38.1724 57.0653 36.31 57.527 34.6784 58.4505C33.693 58.9898 32.831 59.7031 32.0926 60.5905V57.3423H26.5977V90.958H32.3697V78.9924C33.072 79.7809 33.8724 80.4295 34.7708 80.938ZM43.3133 76.4589C42.2358 77.0746 41.0045 77.3825 39.6192 77.3825C38.234 77.3825 36.9872 77.0746 35.879 76.4589C34.7708 75.8433 33.8935 74.9506 33.247 73.7808C32.6006 72.611 32.2773 71.2411 32.2773 69.6712C32.2773 68.0704 32.6006 66.7005 33.247 65.5616C33.8935 64.3918 34.7708 63.499 35.879 62.8834C36.9872 62.2677 38.234 61.9599 39.6192 61.9599C41.0045 61.9599 42.2358 62.2677 43.3133 62.8834C44.4215 63.499 45.2988 64.3918 45.9453 65.5616C46.5917 66.7005 46.9149 68.0704 46.9149 69.6712C46.9149 71.2411 46.5917 72.611 45.9453 73.7808C45.2988 74.9506 44.4215 75.8433 43.3133 76.4589ZM56.4621 90.681C57.6626 91.0812 58.8632 91.2813 60.0637 91.2813C61.449 91.2813 62.7111 91.0658 63.8501 90.6348C65.0199 90.2038 66.0666 89.4496 66.9901 88.3722C67.9444 87.2948 68.8063 85.8326 69.5759 83.9855L81.1197 57.3423H75.5787L67.7726 75.5824L60.0176 57.3423H54.0148L64.7943 82.077L64.3581 83.062C63.804 84.2934 63.2037 85.1707 62.5572 85.694C61.9108 86.2174 61.0642 86.479 60.0176 86.479C59.248 86.479 58.4938 86.3251 57.755 86.0173C57.0162 85.7094 56.3543 85.2938 55.7694 84.7705L53.4607 89.0187C54.261 89.7267 55.2615 90.2808 56.4621 90.681ZM95.3641 72.1185L102.814 82H109.602L100.048 69.1955L109.001 57.3423H102.814L95.5195 67.3162H90.9006V57.3423H85.1287V82H90.9006V72.1185H95.3641ZM29.7637 122.707C31.7338 123.785 33.981 124.323 36.5053 124.323C39.0603 124.323 41.3229 123.785 43.293 122.707C45.294 121.599 46.8486 120.09 47.9568 118.182C49.0958 116.273 49.6653 114.103 49.6653 111.671C49.6653 109.178 49.0958 106.992 47.9568 105.114C46.8486 103.236 45.294 101.759 43.293 100.681C41.3229 99.604 39.0603 99.0653 36.5053 99.0653C33.981 99.0653 31.7338 99.604 29.7637 100.681C27.7935 101.759 26.2389 103.252 25.0999 105.16C23.9609 107.038 23.3914 109.208 23.3914 111.671C23.3914 114.103 23.9609 116.273 25.0999 118.182C26.2389 120.09 27.7935 121.599 29.7637 122.707ZM40.2916 118.459C39.1834 119.075 37.9213 119.382 36.5053 119.382C35.12 119.382 33.8733 119.075 32.7651 118.459C31.6876 117.843 30.8257 116.951 30.1792 115.781C29.5328 114.611 29.2095 113.241 29.2095 111.671C29.2095 110.07 29.5328 108.701 30.1792 107.562C30.8257 106.392 31.6876 105.499 32.7651 104.883C33.8733 104.268 35.1354 103.96 36.5514 103.96C37.9367 103.96 39.1834 104.268 40.2916 104.883C41.3999 105.499 42.2618 106.392 42.8775 107.562C43.5239 108.701 43.8472 110.07 43.8472 111.671C43.8472 113.241 43.5239 114.611 42.8775 115.781C42.2618 116.951 41.3999 117.843 40.2916 118.459ZM72.0827 118.459C71.0053 119.075 69.7739 119.382 68.3887 119.382C67.0034 119.382 65.7567 119.075 64.6485 118.459C63.5402 117.843 62.6629 116.951 62.0165 115.781C61.37 114.611 61.0468 113.241 61.0468 111.671C61.0468 110.07 61.37 108.701 62.0165 107.562C62.6629 106.392 63.5402 105.499 64.6485 104.883C65.7567 104.268 67.0034 103.96 68.3887 103.96C69.7739 103.96 71.0053 104.268 72.0827 104.883C73.1909 105.499 74.0682 106.392 74.7147 107.562C75.3612 108.701 75.6844 110.07 75.6844 111.671C75.6844 113.241 75.3612 114.611 74.7147 115.781C74.0682 116.951 73.1909 117.843 72.0827 118.459ZM85.9638 123.261C86.7026 123.969 87.5954 124.323 88.642 124.323C89.6886 124.323 90.5814 123.969 91.3202 123.261C92.059 122.522 92.4284 121.599 92.4284 120.491C92.4284 119.321 92.059 118.397 91.3202 117.72C90.5814 117.012 89.6886 116.658 88.642 116.658C87.5954 116.658 86.7026 117.012 85.9638 117.72C85.225 118.397 84.8556 119.321 84.8556 120.491C84.8556 121.599 85.225 122.522 85.9638 123.261Z" fill="#FFC017"/>
<path d="M191.91 106L169.63 76.4477L181.405 69.1751L208.879 106H191.91ZM147.697 106V44.3558H162.127V106H147.697ZM157.855 81.2961V69.2905H178.75V81.2961H157.855ZM182.79 76.9095L169.284 75.2933L191.91 44.3558H207.379L182.79 76.9095ZM244.502 106.808C238.191 106.808 232.573 105.461 227.648 102.768C222.723 99.9972 218.836 96.2262 215.989 91.4547C213.141 86.6833 211.717 81.2577 211.717 75.1779C211.717 69.0212 213.141 63.5956 215.989 58.9011C218.836 54.1296 222.723 50.3971 227.648 47.7035C232.573 45.01 238.191 43.6632 244.502 43.6632C250.89 43.6632 256.546 45.01 261.471 47.7035C266.474 50.3971 270.36 54.0911 273.131 58.7856C275.978 63.4801 277.402 68.9442 277.402 75.1779C277.402 81.2577 275.978 86.6833 273.131 91.4547C270.36 96.2262 266.474 99.9972 261.471 102.768C256.546 105.461 250.89 106.808 244.502 106.808ZM244.502 94.4561C248.042 94.4561 251.197 93.6866 253.968 92.1474C256.738 90.6082 258.893 88.3764 260.433 85.4519C262.049 82.5275 262.857 79.1028 262.857 75.1779C262.857 71.176 262.049 67.7514 260.433 64.9039C258.893 61.9794 256.738 59.7476 253.968 58.2084C251.197 56.6693 248.081 55.8997 244.617 55.8997C241.077 55.8997 237.922 56.6693 235.151 58.2084C232.458 59.7476 230.303 61.9794 228.687 64.9039C227.071 67.7514 226.263 71.176 226.263 75.1779C226.263 79.1028 227.071 82.5275 228.687 85.4519C230.303 88.3764 232.458 90.6082 235.151 92.1474C237.922 93.6866 241.039 94.4561 244.502 94.4561ZM291.657 106V44.3558H306.087V69.406H337.14V44.3558H351.569V106H337.14V81.6425H306.087V106H291.657ZM398.96 106.808C392.495 106.808 386.723 105.461 381.644 102.768C376.642 99.9972 372.717 96.2262 369.869 91.4547C367.022 86.6833 365.598 81.2577 365.598 75.1779C365.598 69.0212 367.022 63.5956 369.869 58.9011C372.717 54.1296 376.642 50.3971 381.644 47.7035C386.723 45.01 392.495 43.6632 398.96 43.6632C404.962 43.6632 410.234 44.8945 414.775 47.3572C419.392 49.7429 422.894 53.2831 425.28 57.9776L414.198 64.4421C412.351 61.5177 410.08 59.3628 407.387 57.9776C404.77 56.5923 401.923 55.8997 398.844 55.8997C395.304 55.8997 392.11 56.6693 389.263 58.2084C386.415 59.7476 384.184 61.9794 382.567 64.9039C380.951 67.7514 380.143 71.176 380.143 75.1779C380.143 79.1798 380.951 82.6429 382.567 85.5674C384.184 88.4149 386.415 90.6082 389.263 92.1474C392.11 93.6866 395.304 94.4561 398.844 94.4561C401.923 94.4561 404.77 93.7635 407.387 92.3782C410.08 90.993 412.351 88.8381 414.198 85.9137L425.28 92.3782C422.894 96.9958 419.392 100.574 414.775 103.114C410.234 105.577 404.962 106.808 398.96 106.808ZM450.347 106V53.1291L453.695 56.5923H428.645V44.3558H486.364V56.5923H461.429L464.777 53.1291V106H450.347ZM531.001 106.808C525.998 106.808 521.419 105.654 517.263 103.345C513.185 101.036 509.914 97.573 507.451 92.9554C505.065 88.2609 503.873 82.3351 503.873 75.1779C503.873 67.9438 505.027 62.0179 507.336 57.4004C509.721 52.7828 512.954 49.3581 517.033 47.1263C521.111 44.8176 525.767 43.6632 531.001 43.6632C537.08 43.6632 542.429 44.9715 547.047 47.5881C551.741 50.2047 555.435 53.8603 558.129 58.5548C560.899 63.2493 562.284 68.7903 562.284 75.1779C562.284 81.5655 560.899 87.145 558.129 91.9165C555.435 96.611 551.741 100.267 547.047 102.883C542.429 105.5 537.08 106.808 531.001 106.808ZM496.831 128.395V44.3558H510.568V58.9011L510.106 75.2933L511.261 91.6856V128.395H496.831ZM529.384 94.4561C532.848 94.4561 535.926 93.6866 538.62 92.1474C541.39 90.6082 543.583 88.3764 545.2 85.4519C546.816 82.5275 547.624 79.1028 547.624 75.1779C547.624 71.176 546.816 67.7514 545.2 64.9039C543.583 61.9794 541.39 59.7476 538.62 58.2084C535.926 56.6693 532.848 55.8997 529.384 55.8997C525.921 55.8997 522.804 56.6693 520.034 58.2084C517.263 59.7476 515.07 61.9794 513.454 64.9039C511.838 67.7514 511.03 71.176 511.03 75.1779C511.03 79.1028 511.838 82.5275 513.454 85.4519C515.07 88.3764 517.263 90.6082 520.034 92.1474C522.804 93.6866 525.921 94.4561 529.384 94.4561ZM580.496 129.203C577.494 129.203 574.493 128.703 571.492 127.702C568.49 126.702 565.989 125.317 563.988 123.547L569.76 112.926C571.222 114.235 572.877 115.274 574.724 116.043C576.571 116.813 578.456 117.198 580.38 117.198C582.997 117.198 585.113 116.543 586.73 115.235C588.346 113.927 589.846 111.733 591.232 108.655L594.81 100.574L595.965 98.8428L619.283 44.3558H633.136L604.276 110.964C602.352 115.581 600.197 119.237 597.812 121.931C595.503 124.624 592.886 126.51 589.962 127.587C587.114 128.664 583.959 129.203 580.496 129.203ZM593.194 108.193L565.373 44.3558H580.38L603.006 97.573L593.194 108.193ZM687.371 106L665.092 76.4477L676.866 69.1751L704.341 106H687.371ZM643.158 106V44.3558H657.588V106H643.158ZM653.317 81.2961V69.2905H674.211V81.2961H653.317ZM678.252 76.9095L664.745 75.2933L687.371 44.3558H702.84L678.252 76.9095ZM726.543 106V53.1291L729.89 56.5923H704.84V44.3558H762.56V56.5923H737.625L740.973 53.1291V106H726.543ZM797.795 106.808C791.485 106.808 785.867 105.461 780.941 102.768C776.016 99.9972 772.13 96.2262 769.282 91.4547C766.435 86.6833 765.011 81.2577 765.011 75.1779C765.011 69.0212 766.435 63.5956 769.282 58.9011C772.13 54.1296 776.016 50.3971 780.941 47.7035C785.867 45.01 791.485 43.6632 797.795 43.6632C804.183 43.6632 809.839 45.01 814.765 47.7035C819.767 50.3971 823.654 54.0911 826.424 58.7856C829.272 63.4801 830.695 68.9442 830.695 75.1779C830.695 81.2577 829.272 86.6833 826.424 91.4547C823.654 96.2262 819.767 99.9972 814.765 102.768C809.839 105.461 804.183 106.808 797.795 106.808ZM797.795 94.4561C801.335 94.4561 804.491 93.6866 807.261 92.1474C810.032 90.6082 812.187 88.3764 813.726 85.4519C815.342 82.5275 816.15 79.1028 816.15 75.1779C816.15 71.176 815.342 67.7514 813.726 64.9039C812.187 61.9794 810.032 59.7476 807.261 58.2084C804.491 56.6693 801.374 55.8997 797.911 55.8997C794.371 55.8997 791.215 56.6693 788.445 58.2084C785.751 59.7476 783.596 61.9794 781.98 64.9039C780.364 67.7514 779.556 71.176 779.556 75.1779C779.556 79.1028 780.364 82.5275 781.98 85.4519C783.596 88.3764 785.751 90.6082 788.445 92.1474C791.215 93.6866 794.332 94.4561 797.795 94.4561ZM879.12 106.808C874.118 106.808 869.539 105.654 865.383 103.345C861.304 101.036 858.033 97.573 855.571 92.9554C853.185 88.2609 851.992 82.3351 851.992 75.1779C851.992 67.9438 853.146 62.0179 855.455 57.4004C857.841 52.7828 861.073 49.3581 865.152 47.1263C869.231 44.8176 873.887 43.6632 879.12 43.6632C885.2 43.6632 890.548 44.9715 895.166 47.5881C899.86 50.2047 903.555 53.8603 906.248 58.5548C909.019 63.2493 910.404 68.7903 910.404 75.1779C910.404 81.5655 909.019 87.145 906.248 91.9165C903.555 96.611 899.86 100.267 895.166 102.883C890.548 105.5 885.2 106.808 879.12 106.808ZM844.95 128.395V44.3558H858.687V58.9011L858.226 75.2933L859.38 91.6856V128.395H844.95ZM877.504 94.4561C880.967 94.4561 884.045 93.6866 886.739 92.1474C889.509 90.6082 891.703 88.3764 893.319 85.4519C894.935 82.5275 895.743 79.1028 895.743 75.1779C895.743 71.176 894.935 67.7514 893.319 64.9039C891.703 61.9794 889.509 59.7476 886.739 58.2084C884.045 56.6693 880.967 55.8997 877.504 55.8997C874.041 55.8997 870.924 56.6693 868.153 58.2084C865.383 59.7476 863.189 61.9794 861.573 64.9039C859.957 67.7514 859.149 71.176 859.149 75.1779C859.149 79.1028 859.957 82.5275 861.573 85.4519C863.189 88.3764 865.383 90.6082 868.153 92.1474C870.924 93.6866 874.041 94.4561 877.504 94.4561ZM1004.73 106L978.298 44.3558H993.305L1016.05 98.7274H1008.66L1032.21 44.3558H1046.06L1019.62 106H1004.73ZM1115.03 107.154C1108.34 107.154 1102.53 106.154 1097.6 104.153C1092.68 102.152 1088.87 99.343 1086.17 95.726C1083.48 92.0319 1082.13 87.7222 1082.13 82.7969C1082.13 77.8715 1083.44 73.7157 1086.06 70.3295C1088.68 66.9433 1092.45 64.3652 1097.37 62.5951C1102.3 60.825 1108.18 59.94 1115.03 59.94C1121.88 59.94 1127.77 60.825 1132.7 62.5951C1137.7 64.3652 1141.51 66.9818 1144.12 70.4449C1146.82 73.8311 1148.16 77.9484 1148.16 82.7969C1148.16 87.7222 1146.78 92.0319 1144.01 95.726C1141.32 99.343 1137.47 102.152 1132.47 104.153C1127.54 106.154 1121.73 107.154 1115.03 107.154ZM1115.03 95.3797C1120.58 95.3797 1124.96 94.2253 1128.19 91.9165C1131.43 89.6077 1133.04 86.4139 1133.04 82.3351C1133.04 78.3332 1131.43 75.1779 1128.19 72.8691C1124.96 70.5604 1120.58 69.406 1115.03 69.406C1109.49 69.406 1105.14 70.5604 1101.99 72.8691C1098.83 75.1779 1097.26 78.3332 1097.26 82.3351C1097.26 86.4139 1098.83 89.6077 1101.99 91.9165C1105.14 94.2253 1109.49 95.3797 1115.03 95.3797ZM1115.03 67.7898C1108.8 67.7898 1103.45 66.9818 1098.99 65.3656C1094.52 63.6725 1091.06 61.2483 1088.6 58.093C1086.21 54.8607 1085.02 51.0128 1085.02 46.5491C1085.02 41.9316 1086.25 37.9682 1088.71 34.659C1091.25 31.2728 1094.79 28.6562 1099.33 26.8091C1103.87 24.9621 1109.11 24.0386 1115.03 24.0386C1121.04 24.0386 1126.31 24.9621 1130.85 26.8091C1135.39 28.6562 1138.93 31.2728 1141.47 34.659C1144.01 37.9682 1145.28 41.9316 1145.28 46.5491C1145.28 51.0128 1144.05 54.8607 1141.58 58.093C1139.2 61.2483 1135.74 63.6725 1131.2 65.3656C1126.65 66.9818 1121.27 67.7898 1115.03 67.7898ZM1115.03 58.5548C1119.81 58.5548 1123.58 57.5543 1126.35 55.5534C1129.12 53.4755 1130.5 50.7049 1130.5 47.2418C1130.5 43.6247 1129.08 40.8157 1126.23 38.8148C1123.38 36.8138 1119.65 35.8134 1115.03 35.8134C1110.42 35.8134 1106.72 36.8138 1103.95 38.8148C1101.18 40.8157 1099.8 43.6247 1099.8 47.2418C1099.8 50.7049 1101.14 53.4755 1103.84 55.5534C1106.61 57.5543 1110.34 58.5548 1115.03 58.5548Z" fill="#FFC017"/>
</svg>
