<svg width="2376" height="315" viewBox="0 0 2376 315" fill="none" xmlns="http://www.w3.org/2000/svg">
<rect width="2376" height="315" fill="white"/>
<rect width="300" height="300" rx="70" fill="#20242E"/>
<path d="M53.04 78L29.88 47.28L42.12 39.72L70.68 78H53.04ZM7.08 78V13.92H22.08V78H7.08ZM17.64 52.32V39.84H39.36V52.32H17.64ZM43.56 47.76L29.52 46.08L53.04 13.92H69.12L43.56 47.76ZM107.71 78.84C101.15 78.84 95.3103 77.44 90.1903 74.64C85.0703 71.76 81.0303 67.84 78.0703 62.88C75.1103 57.92 73.6303 52.28 73.6303 45.96C73.6303 39.56 75.1103 33.92 78.0703 29.04C81.0303 24.08 85.0703 20.2 90.1903 17.4C95.3103 14.6 101.15 13.2 107.71 13.2C114.35 13.2 120.23 14.6 125.35 17.4C130.55 20.2 134.59 24.04 137.47 28.92C140.43 33.8 141.91 39.48 141.91 45.96C141.91 52.28 140.43 57.92 137.47 62.88C134.59 67.84 130.55 71.76 125.35 74.64C120.23 77.44 114.35 78.84 107.71 78.84ZM107.71 66C111.39 66 114.67 65.2 117.55 63.6C120.43 62 122.67 59.68 124.27 56.64C125.95 53.6 126.79 50.04 126.79 45.96C126.79 41.8 125.95 38.24 124.27 35.28C122.67 32.24 120.43 29.92 117.55 28.32C114.67 26.72 111.43 25.92 107.83 25.92C104.15 25.92 100.87 26.72 97.9903 28.32C95.1903 29.92 92.9503 32.24 91.2703 35.28C89.5903 38.24 88.7503 41.8 88.7503 45.96C88.7503 50.04 89.5903 53.6 91.2703 56.64C92.9503 59.68 95.1903 62 97.9903 63.6C100.87 65.2 104.11 66 107.71 66ZM156.728 78V13.92H171.728V39.96H204.008V13.92H219.008V78H204.008V52.68H171.728V78H156.728ZM268.271 78.84C261.551 78.84 255.551 77.44 250.271 74.64C245.071 71.76 240.991 67.84 238.031 62.88C235.071 57.92 233.591 52.28 233.591 45.96C233.591 39.56 235.071 33.92 238.031 29.04C240.991 24.08 245.071 20.2 250.271 17.4C255.551 14.6 261.551 13.2 268.271 13.2C274.511 13.2 279.991 14.48 284.711 17.04C289.511 19.52 293.151 23.2 295.631 28.08L284.111 34.8C282.191 31.76 279.831 29.52 277.031 28.08C274.311 26.64 271.351 25.92 268.151 25.92C264.471 25.92 261.151 26.72 258.191 28.32C255.231 29.92 252.911 32.24 251.231 35.28C249.551 38.24 248.711 41.8 248.711 45.96C248.711 50.12 249.551 53.72 251.231 56.76C252.911 59.72 255.231 62 258.191 63.6C261.151 65.2 264.471 66 268.151 66C271.351 66 274.311 65.28 277.031 63.84C279.831 62.4 282.191 60.16 284.111 57.12L295.631 63.84C293.151 68.64 289.511 72.36 284.711 75C279.991 77.56 274.511 78.84 268.271 78.84ZM20.4 188V133.04L23.88 136.64H-2.16V123.92H57.84V136.64H31.92L35.4 133.04V188H20.4ZM104.241 188.84C99.0406 188.84 94.2806 187.64 89.9606 185.24C85.7206 182.84 82.3206 179.24 79.7606 174.44C77.2806 169.56 76.0406 163.4 76.0406 155.96C76.0406 148.44 77.2406 142.28 79.6406 137.48C82.1206 132.68 85.4806 129.12 89.7206 126.8C93.9606 124.4 98.8006 123.2 104.241 123.2C110.561 123.2 116.121 124.56 120.921 127.28C125.801 130 129.641 133.8 132.441 138.68C135.321 143.56 136.761 149.32 136.761 155.96C136.761 162.6 135.321 168.4 132.441 173.36C129.641 178.24 125.801 182.04 120.921 184.76C116.121 187.48 110.561 188.84 104.241 188.84ZM68.7206 211.28V123.92H83.0006V139.04L82.5206 156.08L83.7206 173.12V211.28H68.7206ZM102.561 176C106.161 176 109.361 175.2 112.161 173.6C115.041 172 117.321 169.68 119.001 166.64C120.681 163.6 121.521 160.04 121.521 155.96C121.521 151.8 120.681 148.24 119.001 145.28C117.321 142.24 115.041 139.92 112.161 138.32C109.361 136.72 106.161 135.92 102.561 135.92C98.9606 135.92 95.7206 136.72 92.8406 138.32C89.9606 139.92 87.6806 142.24 86.0006 145.28C84.3206 148.24 83.4806 151.8 83.4806 155.96C83.4806 160.04 84.3206 163.6 86.0006 166.64C87.6806 169.68 89.9606 172 92.8406 173.6C95.7206 175.2 98.9606 176 102.561 176ZM155.692 212.12C152.572 212.12 149.452 211.6 146.332 210.56C143.212 209.52 140.612 208.08 138.532 206.24L144.532 195.2C146.052 196.56 147.772 197.64 149.692 198.44C151.612 199.24 153.572 199.64 155.572 199.64C158.292 199.64 160.492 198.96 162.172 197.6C163.852 196.24 165.412 193.96 166.852 190.76L170.572 182.36L171.772 180.56L196.012 123.92H210.412L180.412 193.16C178.412 197.96 176.172 201.76 173.692 204.56C171.292 207.36 168.572 209.32 165.532 210.44C162.572 211.56 159.292 212.12 155.692 212.12ZM168.892 190.28L139.972 123.92H155.572L179.092 179.24L168.892 190.28ZM266.79 188L243.63 157.28L255.87 149.72L284.43 188H266.79ZM220.83 188V123.92H235.83V188H220.83ZM231.39 162.32V149.84H253.11V162.32H231.39ZM257.31 157.76L243.27 156.08L266.79 123.92H282.87L257.31 157.76ZM20.4 298V243.04L23.88 246.64H-2.16V233.92H57.84V246.64H31.92L35.4 243.04V298H20.4ZM94.4681 298.84C87.9081 298.84 82.0681 297.44 76.9481 294.64C71.8281 291.76 67.7881 287.84 64.8281 282.88C61.8681 277.92 60.3881 272.28 60.3881 265.96C60.3881 259.56 61.8681 253.92 64.8281 249.04C67.7881 244.08 71.8281 240.2 76.9481 237.4C82.0681 234.6 87.9081 233.2 94.4681 233.2C101.108 233.2 106.988 234.6 112.108 237.4C117.308 240.2 121.348 244.04 124.228 248.92C127.188 253.8 128.668 259.48 128.668 265.96C128.668 272.28 127.188 277.92 124.228 282.88C121.348 287.84 117.308 291.76 112.108 294.64C106.988 297.44 101.108 298.84 94.4681 298.84ZM94.4681 286C98.1481 286 101.428 285.2 104.308 283.6C107.188 282 109.428 279.68 111.028 276.64C112.708 273.6 113.548 270.04 113.548 265.96C113.548 261.8 112.708 258.24 111.028 255.28C109.428 252.24 107.188 249.92 104.308 248.32C101.428 246.72 98.1881 245.92 94.5881 245.92C90.9081 245.92 87.6281 246.72 84.7481 248.32C81.9481 249.92 79.7081 252.24 78.0281 255.28C76.3481 258.24 75.5081 261.8 75.5081 265.96C75.5081 270.04 76.3481 273.6 78.0281 276.64C79.7081 279.68 81.9481 282 84.7481 283.6C87.6281 285.2 90.8681 286 94.4681 286ZM179.006 298.84C173.806 298.84 169.046 297.64 164.726 295.24C160.486 292.84 157.086 289.24 154.526 284.44C152.046 279.56 150.806 273.4 150.806 265.96C150.806 258.44 152.006 252.28 154.406 247.48C156.886 242.68 160.246 239.12 164.486 236.8C168.726 234.4 173.566 233.2 179.006 233.2C185.326 233.2 190.886 234.56 195.686 237.28C200.566 240 204.406 243.8 207.206 248.68C210.086 253.56 211.526 259.32 211.526 265.96C211.526 272.6 210.086 278.4 207.206 283.36C204.406 288.24 200.566 292.04 195.686 294.76C190.886 297.48 185.326 298.84 179.006 298.84ZM143.486 321.28V233.92H157.766V249.04L157.286 266.08L158.486 283.12V321.28H143.486ZM177.326 286C180.926 286 184.126 285.2 186.926 283.6C189.806 282 192.086 279.68 193.766 276.64C195.446 273.6 196.286 270.04 196.286 265.96C196.286 261.8 195.446 258.24 193.766 255.28C192.086 252.24 189.806 249.92 186.926 248.32C184.126 246.72 180.926 245.92 177.326 245.92C173.726 245.92 170.486 246.72 167.606 248.32C164.726 249.92 162.446 252.24 160.766 255.28C159.086 258.24 158.246 261.8 158.246 265.96C158.246 270.04 159.086 273.6 160.766 276.64C162.446 279.68 164.726 282 167.606 283.6C170.486 285.2 173.726 286 177.326 286ZM229.96 298.84C227.24 298.84 224.92 297.92 223 296.08C221.08 294.16 220.12 291.76 220.12 288.88C220.12 285.84 221.08 283.44 223 281.68C224.92 279.84 227.24 278.92 229.96 278.92C232.68 278.92 235 279.84 236.92 281.68C238.84 283.44 239.8 285.84 239.8 288.88C239.8 291.76 238.84 294.16 236.92 296.08C235 297.92 232.68 298.84 229.96 298.84Z" fill="white"/>
<path d="M497.1 250L439.2 173.2L469.8 154.3L541.2 250H497.1ZM382.2 250V89.8H419.7V250H382.2ZM408.6 185.8V154.6H462.9V185.8H408.6ZM473.4 174.4L438.3 170.2L497.1 89.8H537.3L473.4 174.4ZM633.776 252.1C617.376 252.1 602.776 248.6 589.976 241.6C577.176 234.4 567.076 224.6 559.676 212.2C552.276 199.8 548.576 185.7 548.576 169.9C548.576 153.9 552.276 139.8 559.676 127.6C567.076 115.2 577.176 105.5 589.976 98.5C602.776 91.5 617.376 88 633.776 88C650.376 88 665.076 91.5 677.876 98.5C690.876 105.5 700.976 115.1 708.176 127.3C715.576 139.5 719.276 153.7 719.276 169.9C719.276 185.7 715.576 199.8 708.176 212.2C700.976 224.6 690.876 234.4 677.876 241.6C665.076 248.6 650.376 252.1 633.776 252.1ZM633.776 220C642.976 220 651.176 218 658.376 214C665.576 210 671.176 204.2 675.176 196.6C679.376 189 681.476 180.1 681.476 169.9C681.476 159.5 679.376 150.6 675.176 143.2C671.176 135.6 665.576 129.8 658.376 125.8C651.176 121.8 643.076 119.8 634.076 119.8C624.876 119.8 616.676 121.8 609.476 125.8C602.476 129.8 596.876 135.6 592.676 143.2C588.476 150.6 586.376 159.5 586.376 169.9C586.376 180.1 588.476 189 592.676 196.6C596.876 204.2 602.476 210 609.476 214C616.676 218 624.776 220 633.776 220ZM756.321 250V89.8H793.821V154.9H874.521V89.8H912.021V250H874.521V186.7H793.821V250H756.321ZM1035.18 252.1C1018.38 252.1 1003.38 248.6 990.178 241.6C977.178 234.4 966.978 224.6 959.578 212.2C952.178 199.8 948.478 185.7 948.478 169.9C948.478 153.9 952.178 139.8 959.578 127.6C966.978 115.2 977.178 105.5 990.178 98.5C1003.38 91.5 1018.38 88 1035.18 88C1050.78 88 1064.48 91.2 1076.28 97.6C1088.28 103.8 1097.38 113 1103.58 125.2L1074.78 142C1069.98 134.4 1064.08 128.8 1057.08 125.2C1050.28 121.6 1042.88 119.8 1034.88 119.8C1025.68 119.8 1017.38 121.8 1009.98 125.8C1002.58 129.8 996.778 135.6 992.578 143.2C988.378 150.6 986.278 159.5 986.278 169.9C986.278 180.3 988.378 189.3 992.578 196.9C996.778 204.3 1002.58 210 1009.98 214C1017.38 218 1025.68 220 1034.88 220C1042.88 220 1050.28 218.2 1057.08 214.6C1064.08 211 1069.98 205.4 1074.78 197.8L1103.58 214.6C1097.38 226.6 1088.28 235.9 1076.28 242.5C1064.48 248.9 1050.78 252.1 1035.18 252.1ZM1168.72 250V112.6L1177.42 121.6H1112.32V89.8H1262.32V121.6H1197.52L1206.22 112.6V250H1168.72ZM1378.32 252.1C1365.32 252.1 1353.42 249.1 1342.62 243.1C1332.02 237.1 1323.52 228.1 1317.12 216.1C1310.92 203.9 1307.82 188.5 1307.82 169.9C1307.82 151.1 1310.82 135.7 1316.82 123.7C1323.02 111.7 1331.42 102.8 1342.02 97C1352.62 91 1364.72 88 1378.32 88C1394.12 88 1408.02 91.4 1420.02 98.2C1432.22 105 1441.82 114.5 1448.82 126.7C1456.02 138.9 1459.62 153.3 1459.62 169.9C1459.62 186.5 1456.02 201 1448.82 213.4C1441.82 225.6 1432.22 235.1 1420.02 241.9C1408.02 248.7 1394.12 252.1 1378.32 252.1ZM1289.52 308.2V89.8H1325.22V127.6L1324.02 170.2L1327.02 212.8V308.2H1289.52ZM1374.12 220C1383.12 220 1391.12 218 1398.12 214C1405.32 210 1411.02 204.2 1415.22 196.6C1419.42 189 1421.52 180.1 1421.52 169.9C1421.52 159.5 1419.42 150.6 1415.22 143.2C1411.02 135.6 1405.32 129.8 1398.12 125.8C1391.12 121.8 1383.12 119.8 1374.12 119.8C1365.12 119.8 1357.02 121.8 1349.82 125.8C1342.62 129.8 1336.92 135.6 1332.72 143.2C1328.52 150.6 1326.42 159.5 1326.42 169.9C1326.42 180.1 1328.52 189 1332.72 196.6C1336.92 204.2 1342.62 210 1349.82 214C1357.02 218 1365.12 220 1374.12 220ZM1506.95 310.3C1499.15 310.3 1491.35 309 1483.55 306.4C1475.75 303.8 1469.25 300.2 1464.05 295.6L1479.05 268C1482.85 271.4 1487.15 274.1 1491.95 276.1C1496.75 278.1 1501.65 279.1 1506.65 279.1C1513.45 279.1 1518.95 277.4 1523.15 274C1527.35 270.6 1531.25 264.9 1534.85 256.9L1544.15 235.9L1547.15 231.4L1607.75 89.8H1643.75L1568.75 262.9C1563.75 274.9 1558.15 284.4 1551.95 291.4C1545.95 298.4 1539.15 303.3 1531.55 306.1C1524.15 308.9 1515.95 310.3 1506.95 310.3ZM1539.95 255.7L1467.65 89.8H1506.65L1565.45 228.1L1539.95 255.7ZM1784.7 250L1726.8 173.2L1757.4 154.3L1828.8 250H1784.7ZM1669.8 250V89.8H1707.3V250H1669.8ZM1696.2 185.8V154.6H1750.5V185.8H1696.2ZM1761 174.4L1725.9 170.2L1784.7 89.8H1824.9L1761 174.4ZM1886.5 250V112.6L1895.2 121.6H1830.1V89.8H1980.1V121.6H1915.3L1924 112.6V250H1886.5ZM2071.67 252.1C2055.27 252.1 2040.67 248.6 2027.87 241.6C2015.07 234.4 2004.97 224.6 1997.57 212.2C1990.17 199.8 1986.47 185.7 1986.47 169.9C1986.47 153.9 1990.17 139.8 1997.57 127.6C2004.97 115.2 2015.07 105.5 2027.87 98.5C2040.67 91.5 2055.27 88 2071.67 88C2088.27 88 2102.97 91.5 2115.77 98.5C2128.77 105.5 2138.87 115.1 2146.07 127.3C2153.47 139.5 2157.17 153.7 2157.17 169.9C2157.17 185.7 2153.47 199.8 2146.07 212.2C2138.87 224.6 2128.77 234.4 2115.77 241.6C2102.97 248.6 2088.27 252.1 2071.67 252.1ZM2071.67 220C2080.87 220 2089.07 218 2096.27 214C2103.47 210 2109.07 204.2 2113.07 196.6C2117.27 189 2119.37 180.1 2119.37 169.9C2119.37 159.5 2117.27 150.6 2113.07 143.2C2109.07 135.6 2103.47 129.8 2096.27 125.8C2089.07 121.8 2080.97 119.8 2071.97 119.8C2062.77 119.8 2054.57 121.8 2047.37 125.8C2040.37 129.8 2034.77 135.6 2030.57 143.2C2026.37 150.6 2024.27 159.5 2024.27 169.9C2024.27 180.1 2026.37 189 2030.57 196.6C2034.77 204.2 2040.37 210 2047.37 214C2054.57 218 2062.67 220 2071.67 220ZM2283.01 252.1C2270.01 252.1 2258.11 249.1 2247.31 243.1C2236.71 237.1 2228.21 228.1 2221.81 216.1C2215.61 203.9 2212.51 188.5 2212.51 169.9C2212.51 151.1 2215.51 135.7 2221.51 123.7C2227.71 111.7 2236.11 102.8 2246.71 97C2257.31 91 2269.41 88 2283.01 88C2298.81 88 2312.71 91.4 2324.71 98.2C2336.91 105 2346.51 114.5 2353.51 126.7C2360.71 138.9 2364.31 153.3 2364.31 169.9C2364.31 186.5 2360.71 201 2353.51 213.4C2346.51 225.6 2336.91 235.1 2324.71 241.9C2312.71 248.7 2298.81 252.1 2283.01 252.1ZM2194.21 308.2V89.8H2229.91V127.6L2228.71 170.2L2231.71 212.8V308.2H2194.21ZM2278.81 220C2287.81 220 2295.81 218 2302.81 214C2310.01 210 2315.71 204.2 2319.91 196.6C2324.11 189 2326.21 180.1 2326.21 169.9C2326.21 159.5 2324.11 150.6 2319.91 143.2C2315.71 135.6 2310.01 129.8 2302.81 125.8C2295.81 121.8 2287.81 119.8 2278.81 119.8C2269.81 119.8 2261.71 121.8 2254.51 125.8C2247.31 129.8 2241.61 135.6 2237.41 143.2C2233.21 150.6 2231.11 159.5 2231.11 169.9C2231.11 180.1 2233.21 189 2237.41 196.6C2241.61 204.2 2247.31 210 2254.51 214C2261.71 218 2269.81 220 2278.81 220Z" fill="#20242E"/>
</svg>
